<svg version="1.1" id="Layer_1" xmlns="http://www.w3.org/2000/svg" xmlns:xlink="http://www.w3.org/1999/xlink" x="0px" y="0px"
	 width="100%" viewBox="0 0 512 512" enable-background="new 0 0 512 512" xml:space="preserve">
<path fill="#010100" opacity="1.000000" stroke="none" 
	d="
M292.000000,513.000000 
	C196.023300,513.000000 100.546577,512.979980 5.069989,513.084900 
	C1.800029,513.088501 0.894547,512.639221 0.897057,509.071777 
	C1.015221,341.112823 1.016794,173.153793 0.892003,5.194884 
	C0.889213,1.440334 1.845027,0.913238 5.303172,0.915236 
	C173.095520,1.012172 340.887909,1.011479 508.680267,0.919031 
	C512.093567,0.917150 513.114197,1.377905 513.111267,5.178299 
	C512.982422,173.137222 512.985168,341.096252 513.101074,509.055206 
	C513.103516,512.588806 512.252319,513.093384 508.946533,513.088135 
	C436.797821,512.972534 364.648895,513.000000 292.000000,513.000000 
z"/>
<path fill="#EBBD6A" opacity="1.000000" stroke="none" 
	d="
M230.464050,305.709747 
	C233.189621,306.762024 232.610031,308.820496 232.610596,310.563568 
	C232.629532,368.365204 232.631699,426.166870 232.604309,483.968506 
	C232.603333,486.029633 233.705078,489.081329 229.236145,487.136719 
	C197.439178,473.300598 163.826889,468.531555 129.488190,467.605255 
	C123.499504,467.443726 117.500336,467.468750 111.511169,467.616547 
	C108.726990,467.685211 107.722878,466.793640 107.759438,463.911438 
	C107.898903,452.919220 107.889397,441.923340 107.763428,430.930817 
	C107.731911,428.180511 108.435196,427.027863 111.386009,427.185791 
	C115.370422,427.399078 119.385445,427.343872 123.373047,427.133331 
	C132.583496,426.647064 139.753906,419.906921 140.243881,410.596710 
	C140.689529,402.128296 140.735489,393.594452 140.241669,385.131226 
	C139.463440,371.793762 129.039352,362.440491 115.327400,362.199921 
	C107.305054,362.059143 107.820641,363.375580 107.817444,354.712158 
	C107.809639,333.557098 107.803299,312.402008 107.823196,291.246948 
	C107.829315,284.740540 108.568954,283.976624 114.945236,283.908813 
	C149.120407,283.545288 182.748169,286.920898 215.051865,298.942749 
	C220.179672,300.851044 225.100067,303.316650 230.464050,305.709747 
z"/>
<path fill="#EABC6A" opacity="1.000000" stroke="none" 
	d="
M348.335510,469.672424 
	C335.986389,472.381714 323.822601,474.109344 311.986206,477.513702 
	C303.197601,480.041443 294.451630,482.679810 286.178558,486.592163 
	C282.493256,488.334900 281.162811,488.238007 281.239594,483.537201 
	C281.492401,468.064087 281.334778,452.584290 281.334747,437.107056 
	C281.334747,395.501587 281.406036,353.895782 281.228241,312.291077 
	C281.209778,307.971344 282.599304,305.885010 286.457794,304.093567 
	C305.477081,295.263275 325.521942,290.216217 346.557922,287.167603 
	C348.980713,288.543304 349.625519,290.586609 349.638428,292.821930 
	C349.706665,304.623627 350.160919,316.429047 349.268494,328.654114 
	C348.032104,331.860779 345.534119,332.233612 343.026764,332.610748 
	C331.823608,334.295776 320.748688,336.564911 309.909454,339.904022 
	C307.525177,340.638519 305.088928,341.255737 302.942535,342.584656 
	C300.411194,344.151886 299.079010,346.378601 300.174377,349.328003 
	C301.223358,352.152435 303.482727,353.380707 306.508698,353.054840 
	C309.005920,352.785889 311.379364,351.996307 313.769379,351.277985 
	C322.865143,348.544220 332.100403,346.421661 341.497040,345.027649 
	C343.954376,344.663055 346.478149,344.110107 348.801819,346.539948 
	C350.021454,349.486420 349.821869,352.169098 349.823273,354.817078 
	C349.841797,390.213409 349.845764,425.609772 349.815674,461.006104 
	C349.813293,463.800781 350.199554,466.688171 348.335510,469.672424 
z"/>
<path fill="#E7AD4D" opacity="1.000000" stroke="none" 
	d="
M348.475464,470.115875 
	C348.024292,428.967590 348.010895,387.865601 347.983948,346.282715 
	C348.527435,343.360352 350.667999,343.627014 352.357422,343.409729 
	C359.774292,342.455811 367.189606,341.430359 374.690704,341.384186 
	C376.689697,341.371857 378.679443,341.268158 380.638031,340.813019 
	C384.128906,340.001770 386.339844,338.086212 386.096252,334.236847 
	C385.897430,331.094086 383.196198,328.822296 379.302979,329.181854 
	C373.668365,329.702240 368.014282,329.533264 362.374786,330.120300 
	C357.830170,330.593353 353.247681,332.286011 348.310089,330.322693 
	C348.015900,318.123108 348.008026,306.218964 348.017059,294.314850 
	C348.018707,292.163605 348.111450,290.009369 347.043823,287.604675 
	C364.770264,284.235992 382.717926,283.684662 400.717438,283.906464 
	C404.477417,283.952789 406.193604,285.756775 406.161102,289.444855 
	C406.134705,292.441589 406.088043,295.442474 406.208679,298.435120 
	C406.347839,301.888550 407.859131,304.907318 411.273071,305.661224 
	C414.153137,306.297241 414.042114,307.856476 414.016693,309.902557 
	C413.975281,313.232269 413.892639,316.567719 414.036255,319.891724 
	C414.189850,323.446320 414.296600,326.419495 409.760712,327.861237 
	C406.714417,328.829468 406.135406,332.311920 406.151642,335.489136 
	C406.189056,342.815460 405.973267,350.148926 406.239319,357.465729 
	C406.376770,361.246918 405.100739,362.462311 401.392273,362.234314 
	C392.815033,361.707031 385.283966,364.168091 379.476898,370.841797 
	C375.354736,375.579163 373.545593,381.152252 373.545502,387.372101 
	C373.545410,394.365570 373.430328,401.361237 373.568146,408.351959 
	C373.794617,419.838531 380.938782,426.958710 392.349792,427.218109 
	C395.844788,427.297577 399.350616,427.382568 402.837189,427.196655 
	C405.533173,427.052917 406.227173,428.158478 406.204102,430.682343 
	C406.103516,441.671173 406.066559,452.662781 406.222137,463.650330 
	C406.265625,466.723846 405.277191,467.724457 402.225006,467.610260 
	C384.387054,466.942688 366.626556,468.109833 348.475464,470.115875 
z"/>
<path fill="#FEEBE3" opacity="1.000000" stroke="none" 
	d="
M246.337433,196.079010 
	C225.160294,192.862091 206.180496,173.175323 203.012268,151.681274 
	C202.866760,150.694061 202.745316,149.703293 202.611710,148.714325 
	C201.068451,137.291946 201.068405,137.291962 189.475357,136.067123 
	C184.688538,135.561371 181.230606,132.126999 181.039825,127.187347 
	C180.834839,121.880226 180.993546,116.559067 180.993546,110.688171 
	C185.968292,112.424980 190.580505,114.105957 195.238876,115.647415 
	C206.233856,119.285667 215.103119,113.061882 215.282349,101.528107 
	C215.390915,94.542747 215.337021,87.553459 215.256699,80.567078 
	C215.205048,76.075462 216.257217,72.221947 220.900787,70.498772 
	C225.397736,68.829987 228.843796,70.609177 231.958664,73.965790 
	C243.720367,86.640320 257.458435,96.182388 274.841858,100.462944 
	C276.532501,102.537857 276.588043,104.702225 276.588959,106.883110 
	C276.594574,120.207253 277.299011,133.576477 276.420502,146.845230 
	C275.014282,168.084198 265.549652,184.973312 246.337433,196.079010 
z"/>
<path fill="#887F8B" opacity="1.000000" stroke="none" 
	d="
M274.964417,84.451859 
	C262.058838,81.023766 252.207565,73.543663 243.543640,64.307709 
	C238.834564,59.287716 233.492218,55.543213 226.433380,55.011955 
	C211.801270,53.910721 200.815887,63.885971 200.296463,78.852699 
	C200.077072,85.174133 200.190033,91.510735 200.294510,97.838089 
	C200.339828,100.582733 199.563812,101.642929 196.842651,100.293747 
	C196.252777,100.001274 195.573502,99.894783 194.949081,99.665367 
	C185.275330,96.111023 185.863190,97.610428 185.994598,87.199577 
	C186.056274,82.315369 185.253998,78.155121 179.661713,76.838478 
	C177.855103,76.413132 178.011642,75.015991 178.005539,73.690887 
	C177.992477,70.859505 178.115250,68.022217 177.972885,65.197922 
	C177.747345,60.723766 177.136169,56.387173 183.449066,55.245960 
	C185.754547,54.829189 186.444351,51.991795 187.107101,49.668583 
	C193.219299,28.242846 209.340668,16.051569 231.562439,16.006430 
	C240.722351,15.987824 249.882401,16.043222 259.503662,16.138252 
	C272.907227,24.336861 276.965240,36.995472 277.530609,51.253311 
	C277.893463,60.403122 277.678101,69.573242 277.570312,78.733238 
	C277.545563,80.838318 277.754456,83.169273 274.964417,84.451859 
z"/>
<path fill="#FEDCCD" opacity="1.000000" stroke="none" 
	d="
M246.216888,196.450745 
	C248.855606,191.805130 253.908463,189.883652 257.469727,186.142944 
	C268.858826,174.180084 274.932739,160.141174 274.996338,143.585724 
	C275.050018,129.612717 275.040436,115.639458 275.092224,101.178612 
	C285.060760,102.197266 294.989746,102.856590 304.868591,100.319313 
	C306.382538,99.930473 307.290985,100.290871 308.157043,101.666290 
	C313.840332,110.692535 322.190063,113.915184 333.011139,112.539474 
	C333.011139,118.740234 333.076141,124.862328 332.986786,130.982178 
	C332.933105,134.657242 330.454315,135.592514 327.266571,135.769028 
	C318.618225,136.247894 317.427795,137.390121 316.802277,146.087296 
	C314.097717,183.692612 276.848206,204.273605 246.216888,196.450745 
z"/>
<path fill="#756E78" opacity="1.000000" stroke="none" 
	d="
M274.855835,84.653183 
	C275.337830,83.806381 275.950714,83.009323 275.933716,81.945030 
	C275.712433,68.084084 277.021484,54.170517 274.638092,40.383038 
	C273.229309,32.233387 269.181763,25.602840 262.862335,20.283901 
	C261.758087,19.354454 260.998016,18.016056 260.021973,16.539043 
	C273.293060,16.143858 286.621521,15.993730 299.949097,16.051903 
	C304.804352,16.073093 307.433502,18.935930 308.426270,23.639181 
	C311.087433,36.246758 313.582947,38.620537 326.071106,40.969440 
	C330.440796,41.791328 332.900787,44.560555 332.939148,48.917362 
	C333.066742,63.416134 333.074005,77.917442 332.945557,92.416168 
	C332.902496,97.279579 328.513519,99.348473 324.033569,96.928154 
	C322.337463,96.011841 321.375458,94.488464 320.368378,92.940285 
	C316.109131,86.392540 310.449158,83.898529 302.849640,85.531357 
	C293.547913,87.529922 284.349731,87.525177 274.855835,84.653183 
z"/>
<path fill="#E49542" opacity="1.000000" stroke="none" 
	d="
M247.728943,316.365662 
	C251.643402,314.368866 255.430634,316.477905 259.334290,316.061279 
	C266.301147,315.317719 266.325439,315.543945 266.325470,322.564667 
	C266.325500,378.705078 266.254364,434.845734 266.450928,490.985474 
	C266.467957,495.851074 264.656372,497.565674 260.349640,497.813385 
	C259.186279,497.880310 258.022034,497.986450 256.858398,497.983704 
	C248.310776,497.963715 247.643005,497.287689 247.644211,488.748077 
	C247.652283,431.441620 247.660904,374.135193 247.728943,316.365662 
z"/>
<path fill="#F1EEF1" opacity="1.000000" stroke="none" 
	d="
M320.876648,264.913757 
	C344.302673,259.585358 367.660034,257.951477 391.200623,258.107574 
	C396.419189,258.142181 396.179901,261.550781 396.463409,265.244904 
	C396.815826,269.836884 393.813232,268.834930 391.310852,268.857758 
	C356.129791,269.178528 321.685455,273.690582 288.743042,286.809387 
	C280.850952,289.952271 273.327118,293.819946 266.097595,298.258911 
	C259.954315,302.030945 253.933090,301.968842 247.786316,298.202057 
	C223.221619,283.148651 196.019699,276.062073 167.848740,272.055847 
	C152.670029,269.897217 137.398941,268.769073 122.051071,268.878754 
	C119.851570,268.894470 117.155891,269.698761 117.491837,265.729523 
	C117.782677,262.293274 116.881310,258.212158 122.231934,258.143005 
	C128.391571,258.063385 134.564896,257.982941 140.713425,258.285645 
	C167.563309,259.607574 194.045563,262.985168 219.318588,272.872772 
	C227.389969,276.030548 235.136063,279.811127 242.363800,284.600067 
	C252.180710,291.104492 261.859467,291.014771 271.707977,284.533447 
	C286.616974,274.721802 303.240021,269.073608 320.876648,264.913757 
z"/>
<path fill="#85A5D4" opacity="1.000000" stroke="none" 
	d="
M303.089539,253.599670 
	C288.472198,258.847534 274.361603,264.601868 261.519165,273.136047 
	C258.465668,275.165192 255.151474,274.978088 252.110306,272.982758 
	C229.387024,258.073853 203.981354,250.858887 177.449326,246.845032 
	C176.646103,246.723526 175.770386,246.696182 175.272888,245.532822 
	C184.060501,241.398193 193.773422,240.723953 202.908005,238.019470 
	C208.681458,236.310104 212.756927,237.564636 217.757446,240.830307 
	C241.799820,256.531525 267.132233,257.818451 293.563293,245.838745 
	C297.198792,248.038025 301.181152,249.430054 303.089539,253.599670 
z"/>
<path fill="#FBE9E1" opacity="1.000000" stroke="none" 
	d="
M125.446442,386.749817 
	C125.495049,393.674072 125.385162,400.171234 125.560219,406.660736 
	C125.667023,410.620331 124.331367,412.478699 120.092575,412.319092 
	C113.607407,412.074890 107.102028,412.388092 100.614693,412.175659 
	C90.902916,411.857605 84.094093,404.937195 83.911003,395.291321 
	C83.781471,388.466766 83.877403,381.637665 83.895111,374.810638 
	C83.910896,368.726532 87.051208,364.592041 92.552444,361.063019 
	C93.414207,366.736084 95.747131,371.045868 100.058975,374.200256 
	C104.433006,377.400055 109.412933,377.145844 114.413086,377.197235 
	C121.050682,377.265503 123.995773,379.785309 125.446442,386.749817 
z"/>
<path fill="#FBDACB" opacity="1.000000" stroke="none" 
	d="
M415.710815,372.768555 
	C419.071198,369.547211 420.647217,365.802155 421.389954,361.283478 
	C426.861206,364.059479 429.817780,368.248535 430.010071,373.990234 
	C430.260864,381.479095 430.285309,388.990936 430.007294,396.478027 
	C429.697662,404.815582 423.003235,411.642914 414.658081,412.067047 
	C407.510864,412.430267 400.332642,412.139343 393.171295,412.288483 
	C389.671234,412.361389 388.433380,410.682495 388.466400,407.417938 
	C388.532166,400.920380 388.362793,394.418671 388.522034,387.924347 
	C388.697479,380.768829 392.289581,377.235260 399.483643,377.217560 
	C405.213409,377.203491 410.866272,377.272705 415.710815,372.768555 
z"/>
<path fill="#FBDACB" opacity="1.000000" stroke="none" 
	d="
M290.300842,226.691345 
	C293.473389,229.429596 290.774811,230.139984 289.190857,230.990967 
	C273.455322,239.445038 257.086151,241.156799 240.069351,235.424225 
	C238.029602,234.737091 235.991562,233.969238 234.082794,232.986221 
	C230.988266,231.392517 227.040100,230.275970 225.205505,227.706299 
	C222.753952,224.272461 228.247482,222.432510 228.843185,219.205002 
	C229.078979,217.927414 229.709488,216.686752 230.337616,215.525177 
	C231.579056,213.229340 230.730881,209.421722 232.965912,208.546906 
	C234.764694,207.842819 237.568710,209.817551 239.957993,210.493027 
	C252.570877,214.058899 265.258759,214.167358 277.881714,210.756805 
	C280.868042,209.949936 282.292328,209.940567 283.049347,213.370377 
	C284.139099,218.307602 286.815460,222.555984 290.300842,226.691345 
z"/>
<path fill="#6F92CB" opacity="1.000000" stroke="none" 
	d="
M303.376862,253.958008 
	C300.716919,250.601013 296.136841,250.024918 293.988708,246.116821 
	C297.677582,243.347580 301.436035,240.948639 305.164948,238.504700 
	C306.162598,237.850845 307.084412,237.355499 308.379364,237.634903 
	C318.551910,239.829926 328.916199,241.283447 340.070740,245.968826 
	C326.967896,248.436844 315.185059,250.446548 303.376862,253.958008 
z"/>
<path fill="#040302" opacity="1.000000" stroke="none" 
	d="
M347.655396,330.196472 
	C358.108246,329.222900 368.195770,328.381500 378.289856,327.628204 
	C384.325806,327.177765 387.733063,329.491455 388.164948,334.149872 
	C388.627808,339.142700 385.710205,342.195831 379.390533,342.549866 
	C369.103210,343.126160 358.853729,343.993011 348.308838,345.595001 
	C335.679382,346.880707 323.810547,349.982666 311.991638,353.319946 
	C310.716095,353.680115 309.471161,354.151245 308.191101,354.492462 
	C303.399628,355.769806 299.284149,353.867615 298.081635,349.853424 
	C296.817139,345.632141 298.946564,341.693451 303.653931,340.196930 
	C314.729523,336.675842 325.996735,333.898682 337.470276,331.995483 
	C340.744476,331.452362 344.018616,330.908997 347.655396,330.196472 
z"/>
</svg>